<?xml version="1.0" encoding="utf-8"?>
<!-- Generator: Adobe Illustrator 23.0.3, SVG Export Plug-In . SVG Version: 6.00 Build 0)  -->
<svg version="1.1" id="レイヤー_1" xmlns="http://www.w3.org/2000/svg" xmlns:xlink="http://www.w3.org/1999/xlink" x="0px"
	 y="0px" viewBox="0 0 1628.3 1228.3" style="enable-background:new 0 0 1628.3 1228.3;" xml:space="preserve">
<style type="text/css">
	.st0{fill:#B7342A;}
	.st1{fill:#DD9158;}
	.st2{fill:#FFFFFF;}
</style>
<path class="st0" d="M1012.3,1067.1c-16.6-7.1-50.6-54.4-50.6-54.4c-16.6-2.4-198.7-14.2-198.7-14.2l-28.4,11.8l-54.7-17.8
	l15.9,33.1l-49.6,9.3l20.5,16.1l50,18c-2,2.8-5.4,5.4-10.5,7.6c-33.1,14.2-44.9,23.6-44.9,23.6s73.3,23.7,54.4,54.4
	c-18.9,30.7,4.7,30.8,4.7,30.8s89.9-14.2,130.1-30.8C890.7,1138.1,1028.8,1074.2,1012.3,1067.1z"/>
<path class="st1" d="M943.7,487.6c5.6,27.4,32.9,165.5,27.3,197.6l11.4,2l-6-199.6H943.7z"/>
<path class="st1" d="M1380.3,679.2c-35.5-59.1-186.9-165.6-186.9-165.6L1063.3,762c0,0,78.1,113.5,63.9,144.3
	c-14.2,30.7-85.1,78-85.1,78l52,66.2c0,0,236.5-111.2,253.1-134.8c16.6-23.6,40.2-94.6,40.2-94.6S1415.8,738.3,1380.3,679.2z"/>
<path class="st0" d="M1116.4,894.4c-10,25.2-46.1,65.1-60.2,68.6c-0.7,0.2-1.5,0.4-2.4,0.7c12.4,22.7,38.3,62.1,76,81.1
	c29.7-11.2,53.4-21.6,56.5-22.6c7.1-2.4,156.1-75.7,167.9-99.3c2.8-5.6,9.5-18.4,17.1-36.2c-43.3,8.5-99.7,10.9-149.8,10.9
	C1177,897.5,1137.5,895.6,1116.4,894.4z"/>
<path class="st0" d="M1042.3,968.2c-31.8,13.5-96.1,47.3-90.2,49.3c7.1,2.4,16.6,56.8,66.2,56.8c24,0,62.3-11.6,96.3-23.8
	C1078.3,1028.2,1054.1,990.2,1042.3,968.2z"/>
<path class="st0" d="M1398,707.1c-63.1,40.8-159.5,78.3-235,104.2l32.9-20.9l-0.3-0.4c69.3-25.1,148-57.7,200.3-91.9
	c-5.6-21.2-15-42-29.8-61.4c-35.4-46.5-85.5-88.2-142.5-118.9c-15.4,48.9-46.1,135.1-89.5,201.6l-8.8-8.9
	c42-65.6,72.4-151.1,87.3-198.4c-73.8-37.4-158.1-56.2-236.8-43.3l5.6,185.5l-5.2-5.3l-5.4,5.1c-5.1-60.2-28.1-171.1-28.1-171.1
	S874.1,445,833.9,438c-40.2-7.1-203.4,23.7-238.9,35.5c-35.5,11.8-127.7,28.4-156.1,30.8c-9.5,0.8-16.8,7.6-22.4,16.4
	c-5.6,1.4-14.6,2.3-28,0.2c-40-26.2-126.7-87.1-174.1-152.7c40.5-48.8,111.7-104.2,206.8-131.6c90.4-26.1,101.3-20.5,195.4-14.7
	l51.8,9.5c-57.5-24.3-157.2-26.9-249.7-0.2c-95,27.4-166.6,82-208.4,131c-12-17.7-21-35.6-25.4-53.2c-5.7-23.2-2.8-44.3,8.7-62.9
	C239.3,171.6,331.3,82.2,452,54.3c100.7-23.2,111.7-12.6,212.2,13.8l54.5,24.2C660,44.3,553.1,21.7,450,45.5
	C326.5,74,232.5,165.2,185.7,241.2c-12.8,20.7-16,44.2-9.7,69.8c4.8,19.5,14.8,39.2,28.1,58.4c-4.5,5.6-8.6,11.1-12.3,16.5
	c-10.1,14.7-11.3,30.1-3.5,45.8c28.9,58.5,172.2,106,215.6,119.2c-2,7.3-2.9,12.5-2.9,12.5s66.2,9.5,115.9,35.5
	c31.2,16.3,92.2,59.7,142.7,95.6l-67.5,32.1l2.5,3.4l-9.6,1.6L385,693.7l-0.5,3.8c-35,1.4-174.9,7.8-203.8,22.3
	c0,0,97-9.5,120.6-9.5c17.7,0,60.3,2.6,80.9,4l-0.4,3.1c0,0,149,40.2,184.5,40.2c10.8,0,26-3.9,41.9-9.4l4.6,6.2l85.1-32.9
	c1.9,1.3,3.8,2.7,5.6,3.9l-108.3,52.4l4.8,7.6l-3,1.7l-200.6,34.9l1.4,6.1c-35.7,7.5-170.6,36.5-196.5,55.3
	c0,0,94.1-25.3,117.4-29.2c18.1-3,63.4-7.7,82.7-9.6l0.2,0.7c0,0,153.6-14.7,186.9-27.2c6.8-2.6,14.9-7.6,23.5-13.8l0.8,1.3
	l147.4-57c15.2-0.2,33.8-2.8,53.7-6.8l-12.4,14.5L668.9,813l3.3,11.3c-22.4,30.1-68.5,94.3-71.9,117.8c0,0,39-60.5,50.1-73.5
	c6.7-7.8,22.1-23.2,33.3-34.2c17.4-5.4,60-19,89.5-31.3c-19.7,25.5-56.1,74.7-58.9,93.2c0,0,33.1-49.3,42.5-59.9
	c5.7-6.4,18.8-18.9,28.3-27.9c20.8-6.2,84-25.6,98.8-36.7c3.7-2.8,7.8-7.7,12-13.7l0.6,1l86.1-66.3l0.4,12.4c0,0,2.6,5.7,6.7,13.8
	l-19,17.9l3.7,6l-1.5,1.7l-112.5,46.3l1.5,5c-19.9,9.3-94.8,45.2-107.6,63.3c0,0,51.7-29.3,64.8-34.6c10.2-4.1,35.9-11.8,47-15.1
	l0.2,0.6c0,0,87.6-25.3,105.5-38.6c3.7-2.8,7.8-7.7,12-13.7l0.6,1l19.4-14.9c9.3,15.3,20.4,30.1,29.8,33.5l-11.3,10.7l3.7,6
	l-1.5,1.7l-112.5,46.3l1.5,5c-19.9,9.3-94.8,45.2-107.6,63.3c0,0,51.7-29.3,64.8-34.6c10.2-4.1,35.9-11.8,47-15.1l0.2,0.6
	c0,0,87.6-25.3,105.5-38.6c3.7-2.8,7.8-7.7,12-13.7l0.6,1l71.9-55.3c-11.2,13.2-23.1,24.7-35.6,33.9c3.1,2.8,6.5,6.3,10.3,10.7
	c4.9,5.6,8.1,13.4,10.7,22l-22.7,17.9l3.1,6.3l-1.7,1.6l-116.2,36.1l1.1,5.2c-20.6,7.5-98.5,36.5-112.8,53.5
	c0,0,54.1-24.6,67.6-28.7c10.5-3.1,36.9-8.5,48.1-10.8l0.1,0.6c0,0,89.5-17.4,108.5-29.1c3.9-2.4,8.4-6.9,13.2-12.6l0.5,1.1
	l18.9-12.1c3.3,10.8,7.4,20.1,14.6,24.6c2.4,1.5,3.5,3.9,3.7,6.9c66.4,3.9,187.2,6.3,257.8-9C1393.5,830.7,1410.8,767.7,1398,707.1z
	 M196.2,429.2c-7-14.2-6-28.1,3-41.3c2.8-4.1,5.9-8.3,9.2-12.5c41.1,56.3,108.8,107.9,153.1,138.4c-4.3-1.5-8.7-3.1-13.5-5.1
	c-36-14.8-13.2,4.8,19.2,23.1C308.2,510.9,217.6,472.6,196.2,429.2z M882.9,737l3.7,6l-1.5,1.7l-72.2,29.7
	c7.2-10.5,14.7-24.1,21.4-37.2c23.5-5.5,47.6-12.4,68.8-19.2L882.9,737z"/>
<circle cx="552.1" cy="523.6" r="35.6"/>
<path class="st2" d="M565.6,509.3c0,5.4-4.4,9.7-9.7,9.7c-5.4,0-9.7-4.4-9.7-9.7c0-5.4,4.4-9.7,9.7-9.7
	C561.2,499.6,565.6,504,565.6,509.3z"/>
</svg>
